# xmcd CD database file
#
# Track frame offsets:
#	150
#	18802
#	39940
#	70242
#	111175
#	126540
#	164062
#	191015
#	209552
#	225920
#	245315
#	259837
#	270762
#
# Disc length: 4144 seconds
#
# Revision: 2
# Processed by: cddbd v1.5PL3 Copyright (c) Steve Scherf et al.
# Submitted via: CDex 1.51
#
DISCID=b0102e0d
DTITLE=GILLAN - Gillan At The BBC [CD2- Unchain Your Brain)
DYEAR=1997
DGENRE=Hard Rock
TTITLE0=Unchain Your Brain (LIVE)
TTITLE1=Are You Sure ? (LIVE)
TTITLE2=Mr. Universe (LIVE)
TTITLE3=No Easy Way (LIVE)
TTITLE4=Trouble (LIVE)
TTITLE5=If You Believe Me (LIVE)
TTITLE6=On The Rocks (LIVE)
TTITLE7=Nervous (LIVE)
TTITLE8=Running White Face Citty Boy (LIVE)
TTITLE9=Vengeance (LIVE)
TTITLE10=Lucille (LIVE)
TTITLE11=Interview With Ian Gillan (LIVE)
TTITLE12=If You Believe Me (LIVE)
EXTD=YEAR: 1997
EXTT0=
EXTT1=
EXTT2=
EXTT3=
EXTT4=
EXTT5=
EXTT6=
EXTT7=
EXTT8=
EXTT9=
EXTT10=
EXTT11=
EXTT12=
PLAYORDER=
